<?xml version="1.0" encoding="UTF-8"?>
<!DOCTYPE svg PUBLIC "-//W3C//DTD SVG 1.1//EN" "http://www.w3.org/Graphics/SVG/1.1/DTD/svg11.dtd">
<!-- Creator: CorelDRAW 2019 (64-Bit) -->
<svg xmlns="http://www.w3.org/2000/svg" xml:space="preserve" width="69.2271mm" height="127mm" version="1.1" style="shape-rendering:geometricPrecision; text-rendering:geometricPrecision; image-rendering:optimizeQuality; fill-rule:evenodd; clip-rule:evenodd"
viewBox="0 0 6967.24 12781.69"
 xmlns:xlink="http://www.w3.org/1999/xlink"
 xmlns:xodm="http://www.corel.com/coreldraw/odm/2003">
 <defs>
  <style type="text/css">
   <![CDATA[
    .fil1 {fill:#2F1770}
    .fil2 {fill:#D61C3B}
    .fil0 {fill:#2F1770;fill-rule:nonzero}
   ]]>
  </style>
 </defs>
 <g id="Layer_x0020_1">
  <metadata id="CorelCorpID_0Corel-Layer"/>
  <g id="_2231963192160">
   <path class="fil0" d="M-0 12752.23l0 -1435.25 0 0 178.53 0 179.24 0 0 0 0 1435.25 0 0 -178.18 0 -179.59 0zm1045.93 0l0 0 -178.18 0 -179.58 0 0 0 0 -1435.25 0 0 160.99 0 160.65 0 0 0 450.71 517.7 1.05 0 0 0 449.66 -517.7 0 0 160.64 0 160.99 0 0 0 0 1435.25 0 0 -178.18 0 -179.58 0 0 0 0 -881.42 -0.35 0 -383.02 441.58 -30.52 0 -30.87 0 -383.71 -441.58 -0.7 0 0 881.42zm1350.72 0l606.45 -1456.3 208.69 0 210.09 0 606.09 1456.3 0 0 -195.37 0 -195.36 0 0 0 -106.28 -271.48 0 0 -638.36 0 0 0 -105.22 271.48 0 0 -195.37 0 -195.37 0zm813.73 -1093.63l-218.86 563.3 0 0 440.54 0 0 0 -220.97 -563.3 -0.7 0zm1761.11 1123.09c-234.65,0 -433.17,-72.25 -595.57,-216.4 -162.4,-144.51 -243.42,-320.94 -243.42,-530.33 0,-209.05 81.02,-385.83 243.42,-530.33 162.4,-144.86 360.92,-217.12 595.57,-217.12 102.77,0 199.58,10.53 290.77,31.57 91.19,21.4 201.33,58.22 330.75,111.53l0 324.09c-113.64,-62.08 -215.36,-105.93 -305.49,-131.53 -89.79,-25.96 -186.6,-38.93 -289.72,-38.93 -136.79,0 -252.53,43.49 -346.89,130.83 -94.35,86.99 -141.71,193.62 -141.71,319.88 0,126.27 47.35,232.89 141.71,319.87 94.35,86.63 210.09,130.13 347.24,130.13l-1.06 0c86.99,-0.7 166.25,-12.63 238.16,-35.78l0 0 0 -197.82 0 0 -197.82 0 0 -258.84 555.58 0 0 605.39 0 0c-171.16,122.41 -378.45,183.78 -621.52,183.78zm937.2 -29.46l0 0 0 -1435.25 0 0 1058.56 0 0 0 0 128.72 0 130.12 0 0 -700.79 0 0 0 0 307.25 0 0 656.6 0 0 128.73 0 130.12 0 0 -656.6 0 0 0 0 351.45 0 0 700.79 0 0 0 0 128.72 0 130.13 0 0 -1058.56 0z"/>
   <polygon class="fil1" points="6269.59,9165.83 2333.18,9165.83 2333.18,4849.16 3474.17,1749.48 "/>
   <polygon class="fil2" points="6554.81,9907.47 6706.88,10306.81 260.37,10306.81 1534.46,6921.91 1534.46,9907.47 "/>
   <path class="fil2" d="M3474.17 0c342.25,0 608.54,285.22 608.54,627.53 0,342.31 -266.29,627.52 -608.54,627.52 -342.31,0 -627.53,-285.21 -627.53,-627.52 0,-342.31 285.22,-627.53 627.53,-627.53z"/>
  </g>
 </g>
</svg>
